# xmcd CD database file
# Copyright (C) 1993-1996 Ti Kan
#
# Track frame offsets:
#  150
#  18497
#  35015
#  53743
#  75454
#  95151
#  114709
#  135389
#  157806
#  174055
#
# Disc length: 2636 seconds
#
# Revision: 1
# Processed by: cddbd v1.5.2PL0 Copyright (c) Steve Scherf et al.
# Submitted via: Advanced CD Ripper Pro 2.0
#
DISCID=710a4a0a
DTITLE=TARKAN - METAMORFOZ
DYEAR=2007
DGENRE=other
TTITLE0=VAY ANAM VAY
TTITLE1=DÝLLÝ DÜDÜK
TTITLE2=ARADA BÝR
TTITLE3=ÝSTANBUL AÐLIYOR
TTITLE4=HOP HOP
TTITLE5=DEDÝKODU
TTITLE6=BAM TELÝ
TTITLE7=GÜN GÝBÝ
TTITLE8=ÇAT KAPI
TTITLE9=PARE PARE
EXTD=
EXTT0=
EXTT1=
EXTT2=
EXTT3=
EXTT4=
EXTT5=
EXTT6=
EXTT7=
EXTT8=
EXTT9=
PLAYORDER=
